<?xml version="1.0" standalone="no"?>
<!DOCTYPE svg PUBLIC "-//W3C//DTD SVG 20010904//EN"
 "http://www.w3.org/TR/2001/REC-SVG-20010904/DTD/svg10.dtd">
<svg version="1.0" xmlns="http://www.w3.org/2000/svg"
 width="175.000000pt" height="175.000000pt" viewBox="0 0 175.000000 175.000000"
 preserveAspectRatio="xMidYMid meet">

<g transform="translate(0.000000,175.000000) scale(0.100000,-0.100000)"
fill="#000000" stroke="none">
<path d="M237 1313 c-18 -17 -5 -82 26 -133 55 -93 64 -95 330 -93 231 3 294
11 226 31 -18 5 -128 48 -244 94 -241 97 -319 121 -338 101z"/>
<path d="M1375 1296 c-142 -46 -486 -189 -477 -198 4 -4 112 -10 238 -11 213
-2 231 -1 263 18 44 26 69 61 91 125 32 95 11 108 -115 66z"/>
<path d="M812 1278 c-7 -7 -12 -34 -12 -60 l0 -49 63 3 62 3 3 37 c5 58 -11
78 -61 78 -24 0 -48 -5 -55 -12z"/>
<path d="M779 1029 c-230 -169 -359 -270 -359 -283 0 -11 124 -6 175 8 103 27
159 76 211 186 15 32 31 57 36 54 13 -8 10 -153 -9 -377 l-17 -208 21 -20 c25
-26 60 -18 73 16 5 14 1 102 -11 231 -20 218 -23 326 -10 358 6 15 10 10 25
-28 24 -64 99 -162 138 -182 52 -27 128 -44 198 -44 l65 0 -56 53 c-47 43
-366 286 -388 295 -4 1 -45 -25 -92 -59z"/>
</g>
</svg>
